<svg id="Layer_1" data-name="Layer 1" xmlns="http://www.w3.org/2000/svg" viewBox="0 0 508.94 515.6"><defs><style>.cls-1{fill:#ffd54f;}</style></defs><path class="cls-1" d="M429.31,503.9A55.19,55.19,0,0,1,391.64,487C297,533.91,169.74,506.1,84.31,412.51S-17.26,189.66,38.09,99.69a57.05,57.05,0,0,1-13.44-39A56.17,56.17,0,0,1,83.14,7.24a57,57,0,0,1,37.67,16.93C215.46-23.17,342.73,4.64,428.16,98.23S529.73,321.08,474,411a56.79,56.79,0,0,1,13.46,38.66A55.76,55.76,0,0,1,429.31,503.9Z" transform="translate(-1.7 1.64)"/><path d="M2,207.36c1.72-38,12.19-74.33,31.28-106.69a59.86,59.86,0,0,1,88.15-80.48C219.64-27,346.76,4,431.05,96.36s104,221.76,47.71,315.29a59.86,59.86,0,0,1-88.15,80.48c-98.25,47.18-225,16.18-309.24-76.55C26.47,355-1.3,278.88,2,207.36ZM42.47,100.29a3.69,3.69,0,0,1-.49,2C22.5,134.21,12.06,170.18,10.35,207.74,7.18,277.27,33.84,351.35,87.62,410.26,170.38,500.92,294.74,531,390.19,483.7a4.18,4.18,0,0,1,4.78.62,51.25,51.25,0,0,0,34.92,15.6,52.08,52.08,0,0,0,41.95-85.78,3.63,3.63,0,0,1-.18-4.81c56.18-90.74,37.52-217.32-45.64-308C343.25,10.67,218.5-19.43,123.44,27.9a4.2,4.2,0,0,1-4.77-.62A51.22,51.22,0,0,0,83.74,11.67,51.89,51.89,0,0,0,29.43,61.25,53.06,53.06,0,0,0,41.8,97.45,5.9,5.9,0,0,1,42.47,100.29Z" transform="translate(-1.7 1.64)"/><path d="M222.23,118.48a12,12,0,1,1,24,1.09,4,4,0,1,1-8-.36A4,4,0,1,0,234,123a4,4,0,1,1-.36,8A12.31,12.31,0,0,1,222.23,118.48Z" transform="translate(-1.7 1.64)"/><path d="M337.39,227.43a12,12,0,0,1,24,1.09,4,4,0,1,1-8-.36A4,4,0,1,0,349.2,232a4,4,0,0,1-.37,8A12,12,0,0,1,337.39,227.43Z" transform="translate(-1.7 1.64)"/><path d="M276.39,344.78a12,12,0,0,1,24,1.09,4,4,0,0,1-8-.36,4,4,0,1,0-4.17,3.81,4,4,0,1,1-.37,8A11.78,11.78,0,0,1,276.39,344.78Z" transform="translate(-1.7 1.64)"/><path d="M436.87,161.89a4.93,4.93,0,0,1,1.75-3.12,3.93,3.93,0,0,1,5.54,1.45c27.18,44.88,40.53,94.74,38.33,143.09a4,4,0,0,1-8-.36c2.14-47.15-10.49-95-36.94-138.63A5.77,5.77,0,0,1,436.87,161.89Z" transform="translate(-1.7 1.64)"/><path d="M371.4,87.23a5.72,5.72,0,0,1,.91-2.36,4.31,4.31,0,0,1,5.63-.54A291.9,291.9,0,0,1,410.58,115c4.19,4.6,8.37,9.6,12.15,14.57,1.52,1.67,1,4-.66,5.58s-4.05,1-5.57-.66c-3.8-4.57-7.58-9.55-12.17-14.16a276.38,276.38,0,0,0-31.87-29.88A7.66,7.66,0,0,1,371.4,87.23Z" transform="translate(-1.7 1.64)"/><path d="M30.35,208.25a233.4,233.4,0,0,1,3.32-29.08,4.69,4.69,0,0,1,4.56-3.4,4.69,4.69,0,0,1,3.4,4.56,213,213,0,0,0-3.27,27.88c-1.88,41.16,7.78,84,28.41,123.42a4.12,4.12,0,1,1-7.37,3.67C38.4,295.1,28.4,251,30.35,208.25Z" transform="translate(-1.7 1.64)"/></svg>